<?xml version="1.0" standalone="no"?>
<!DOCTYPE svg PUBLIC "-//W3C//DTD SVG 20010904//EN"
 "http://www.w3.org/TR/2001/REC-SVG-20010904/DTD/svg10.dtd">
<svg version="1.0" xmlns="http://www.w3.org/2000/svg"
 width="200.000000pt" height="200.000000pt" viewBox="0 0 200.000000 200.000000"
 preserveAspectRatio="xMidYMid meet">
<metadata>
Created by potrace 1.14, written by Peter Selinger 2001-2017
</metadata>
<g transform="translate(0.000000,200.000000) scale(0.100000,-0.100000)"
fill="#000000" stroke="none">
<path d="M833 1986 c-505 -97 -859 -541 -830 -1040 24 -409 290 -761 675 -891
335 -114 689 -48 965 180 259 214 396 571 348 905 -51 348 -293 657 -611 784
-168 67 -390 92 -547 62z m345 -162 c161 -32 300 -110 427 -239 91 -92 152
-191 199 -323 30 -84 31 -92 31 -257 0 -151 -3 -179 -23 -245 -88 -279 -293
-484 -572 -572 -66 -20 -94 -23 -245 -23 -165 0 -173 1 -257 31 -132 47 -231
108 -323 199 -174 171 -255 363 -255 603 0 120 12 189 52 300 36 98 123 235
195 304 109 106 268 191 418 223 84 19 260 18 353 -1z"/>
<path d="M855 1675 c-38 -8 -113 -35 -165 -61 -246 -122 -393 -380 -377 -659
10 -175 74 -313 207 -445 67 -67 103 -94 170 -127 350 -172 766 -30 935 320
89 187 86 415 -8 607 -33 67 -60 103 -127 170 -94 94 -160 137 -277 176 -97
33 -251 41 -358 19z m257 -146 c95 -20 194 -75 268 -148 168 -168 208 -411
102 -629 -36 -76 -158 -198 -234 -234 -368 -178 -788 81 -788 485 0 289 243
534 532 536 37 1 91 -4 120 -10z"/>
<path d="M890 1460 c-12 -8 -12 -13 2 -43 11 -23 13 -38 6 -51 -5 -10 -7 -20
-3 -24 3 -4 -11 -14 -32 -23 l-38 -17 31 -7 c27 -6 31 -11 30 -35 -1 -15 -13
-45 -28 -66 -79 -116 -52 -219 74 -285 46 -24 68 -54 68 -96 l0 -33 -83 0
c-67 0 -87 -3 -99 -17 -21 -25 -31 -60 -18 -68 5 -3 10 0 10 7 0 11 2 10 9 0
6 -11 10 -10 15 4 6 15 9 16 16 4 7 -11 11 -8 21 13 12 26 16 28 68 25 l56 -3
3 -67 3 -68 -33 0 c-18 -1 -46 -7 -63 -15 l-30 -13 34 -1 c22 -1 31 -5 28 -13
-20 -49 -21 -49 38 -18 35 19 72 30 97 30 43 0 44 14 1 25 -37 9 -43 20 -43
88 l0 57 45 0 c39 0 45 3 45 20 0 12 -7 32 -16 45 -24 36 -12 56 28 48 42 -8
58 -20 58 -47 1 -21 1 -21 15 -2 12 16 15 17 15 4 0 -9 -11 -30 -25 -46 -24
-29 -34 -59 -16 -48 17 11 40 -5 33 -22 -6 -16 -4 -16 18 -1 41 27 78 81 92
132 12 45 11 51 -12 94 -20 38 -38 54 -95 84 -63 34 -113 53 -75 29 28 -18
-11 -11 -59 10 -52 24 -80 25 -88 5 -6 -17 23 -55 41 -55 6 0 0 7 -12 16 -26
18 -29 44 -5 44 25 0 146 -50 163 -67 13 -14 13 -14 -7 -4 -27 14 -36 14 -28
1 4 -6 -5 -10 -20 -10 -15 0 -24 -4 -20 -10 3 -5 1 -10 -5 -10 -6 0 -9 -4 -6
-9 10 -16 -84 25 -105 46 -11 11 -23 39 -26 61 -7 51 10 61 57 37 18 -9 34
-14 36 -12 3 3 -15 13 -40 23 l-46 19 0 51 c0 39 6 58 29 90 16 21 32 49 35
61 4 13 18 26 32 29 30 8 25 35 -13 74 -17 18 -22 20 -17 7 11 -31 -11 -46
-51 -33 -29 9 -35 16 -35 38 0 22 -5 28 -22 28 -13 0 -30 -4 -38 -10z m110
-144 c-6 -17 -17 -26 -31 -26 l-22 0 21 23 c12 13 22 32 22 43 1 17 2 17 10 2
7 -11 7 -25 0 -42z m-103 -12 c-3 -3 -12 -4 -19 -1 -8 3 -5 6 6 6 11 1 17 -2
13 -5z m33 -99 c-7 -21 -10 -55 -7 -77 4 -28 1 -41 -9 -45 -8 -3 -11 -9 -8
-14 3 -5 0 -9 -6 -9 -6 0 -8 -4 -5 -10 3 -5 -1 -10 -9 -10 -29 0 -20 84 15
151 35 65 48 71 29 14z m75 -265 c18 -19 17 -20 -3 -20 -15 0 -22 6 -22 20 0
11 2 20 3 20 2 0 12 -9 22 -20z m65 -156 c0 -8 -9 -14 -20 -14 -17 0 -20 7
-20 38 l1 37 19 -24 c11 -13 20 -29 20 -37z"/>
<path d="M978 1463 c7 -3 16 -2 19 1 4 3 -2 6 -13 5 -11 0 -14 -3 -6 -6z"/>
<path d="M1065 980 c10 -11 20 -20 23 -20 3 0 -3 9 -13 20 -10 11 -20 20 -23
20 -3 0 3 -9 13 -20z"/>
</g>
</svg>
